<?xml version="1.0" encoding="UTF-8"?>
<svg id="Layer_1" xmlns="http://www.w3.org/2000/svg" version="1.1" viewBox="0 0 354.03 398.93">
  <!-- Generator: Adobe Illustrator 29.0.1, SVG Export Plug-In . SVG Version: 2.1.0 Build 192)  -->
  <defs>
    <style>
      .st0 {
        fill: #f7eae0;
      }
    </style>
  </defs>
  <path class="st0" d="M204.01,61.82v17.99h-7.35v-17.18c0-4.34-2.2-6.42-5.9-6.42-4.63,0-6.77,2.14-9.31,6.77v16.83h-7.35v-17.18c0-4.34-2.2-6.42-5.9-6.42-4.63,0-6.77,2.14-9.31,6.77v16.83h-7.35v-30.66h7.35v5.15c2.31-3.3,5.78-5.44,10.53-5.44,4.34,0,8.39,1.62,10.47,5.73,3.01-3.53,6.59-5.73,11.51-5.73,6.65,0,12.61,3.41,12.61,12.96Z"/>
  <path class="st0" d="M243.11,49.16h7.35v30.66h-7.35v-7.06c-2.43,4.69-7.23,7.35-12.84,7.35-8.5,0-15.1-6.83-15.1-15.62s6.59-15.62,15.1-15.62c5.61,0,10.41,2.66,12.84,7.35v-7.06ZM242.19,64.49l-.81-1.5c-2.54-4.74-5.73-6.77-9.89-6.77-5.32,0-8.68,3.18-8.68,8.27s3.35,8.27,8.68,8.27c4.17,0,7.35-2.02,9.89-6.77l.81-1.5Z"/>
  <path class="st0" d="M267.64,79.81v-23.89h-7.35v-6.77h7.35v-12.73h7.35v12.73h7.35v6.77h-7.35v23.89h-7.35Z"/>
  <path class="st0" d="M296.62,79.81v-23.89h-7.35v-6.77h7.35v-12.73h7.35v12.73h7.35v6.77h-7.35v23.89h-7.35Z"/>
  <path class="st0" d="M90.68,148.59v-30.66h7.35v6.02c2.31-3.82,5.96-6.31,11.11-6.31,6.36,0,12.03,3.41,12.03,12.96v17.99h-7.35v-17.18c0-4.34-2.2-6.42-5.9-6.42-4.63,0-6.77,2.14-9.31,6.77l-.58,1.04v15.79h-7.35Z"/>
  <path class="st0" d="M132.33,132.68c0-8.33,6.13-15.04,15.44-15.04,11.74,0,17.01,7.87,16.54,17.93h-23.83c.29,3.88,3.7,6.07,8.62,6.07,3.59,0,5.38-.75,8.21-2.14l3.88-1.85,3.07,6.02-4.28,2.2c-2.72,1.39-6.31,3.01-10.59,3.01-10.18,0-17.06-6.13-17.06-16.2ZM154.55,129.21c-.06-2.6-2.78-4.45-6.59-4.45-3.3,0-6.19,1.56-6.59,4.45h13.19Z"/>
  <path class="st0" d="M176.07,148.59v-43.38h7.35v43.38h-7.35Z"/>
  <path class="st0" d="M194.4,135.46v-1.91h7.17v1.45c0,4.63,3.24,7.75,8.04,7.75,2.95,0,4.74-1.21,4.74-3.01,0-1.33-.93-2.02-3.07-3.07l-4.45-2.14c-5.26-2.43-7.06-4.86-7.06-8.73,0-4.34,3.88-8.16,9.72-8.16,3.7,0,5.15.64,8.62,2.26l6.13,2.89-2.89,6.07-5.32-2.54c-2.95-1.39-4.69-2.26-6.19-2.26s-2.26.69-2.26,1.74c0,1.16.46,1.56,2.55,2.55l5.55,2.66c4.97,2.37,6.65,4.98,6.65,8.21,0,5.84-4.97,9.66-12.9,9.66-8.73,0-15.04-5.61-15.04-13.42Z"/>
  <path class="st0" d="M232.99,133.26c0-9.83,8.1-15.62,16.31-15.62s16.31,5.78,16.31,15.62-8.16,15.62-16.31,15.62-16.31-5.78-16.31-15.62ZM257.98,133.26c0-5.55-4.17-8.73-8.68-8.73s-8.68,3.18-8.68,8.73,4.11,8.73,8.68,8.73,8.68-3.18,8.68-8.73Z"/>
  <path class="st0" d="M277.07,148.59v-30.66h7.35v6.02c2.31-3.82,5.96-6.31,11.11-6.31,6.36,0,12.03,3.41,12.03,12.96v17.99h-7.35v-17.18c0-4.34-2.2-6.42-5.9-6.42-4.63,0-6.77,2.14-9.31,6.77l-.58,1.04v15.79h-7.35Z"/>
  <path class="st0" d="M209.68,186.71h7.35v30.66h-7.35v-7.06c-2.43,4.69-7.23,7.35-12.84,7.35-8.5,0-15.1-6.83-15.1-15.62s6.59-15.62,15.1-15.62c5.61,0,10.41,2.66,12.84,7.35v-7.06ZM208.75,202.04l-.81-1.5c-2.54-4.74-5.73-6.77-9.89-6.77-5.32,0-8.68,3.18-8.68,8.27s3.35,8.27,8.68,8.27c4.17,0,7.35-2.02,9.89-6.77l.81-1.5Z"/>
  <path class="st0" d="M230.91,217.37v-30.66h7.35v6.02c2.31-3.82,5.96-6.31,11.11-6.31,6.36,0,12.03,3.41,12.03,12.96v17.99h-7.35v-17.18c0-4.34-2.2-6.42-5.9-6.42-4.63,0-6.77,2.14-9.31,6.77l-.58,1.04v15.79h-7.35Z"/>
  <path class="st0" d="M272.56,202.04c0-8.79,6.59-15.62,15.1-15.62,5.21,0,9.72,2.31,12.26,6.31v-18.74h7.35v43.38h-7.35v-6.02c-2.55,3.99-7.06,6.31-12.26,6.31-8.5,0-15.1-6.83-15.1-15.62ZM298.76,203.54l.81-1.5-.81-1.5c-2.72-4.69-5.78-6.77-9.89-6.77-5.32,0-8.68,3.18-8.68,8.27s3.35,8.27,8.68,8.27c4.11,0,7.17-2.08,9.89-6.77Z"/>
  <path class="st0" d="M138.87,273.01v-1.91h7.17v1.45c0,4.63,3.24,7.75,8.04,7.75,2.95,0,4.74-1.21,4.74-3.01,0-1.33-.93-2.02-3.07-3.07l-4.45-2.14c-5.26-2.43-7.06-4.86-7.06-8.73,0-4.34,3.88-8.16,9.72-8.16,3.7,0,5.15.64,8.62,2.26l6.13,2.89-2.89,6.07-5.32-2.54c-2.95-1.39-4.69-2.26-6.19-2.26s-2.26.69-2.26,1.74c0,1.16.46,1.56,2.55,2.55l5.55,2.66c4.97,2.37,6.65,4.98,6.65,8.21,0,5.84-4.97,9.66-12.9,9.66-8.73,0-15.04-5.61-15.04-13.42Z"/>
  <path class="st0" d="M183.18,286.14v-23.89h-7.35v-6.77h7.35v-12.73h7.35v12.73h7.35v6.77h-7.35v23.89h-7.35Z"/>
  <path class="st0" d="M205.28,270.81c0-9.83,8.1-15.62,16.31-15.62s16.31,5.78,16.31,15.62-8.16,15.62-16.31,15.62-16.31-5.78-16.31-15.62ZM230.27,270.81c0-5.55-4.17-8.73-8.68-8.73s-8.68,3.18-8.68,8.73,4.11,8.73,8.68,8.73,8.68-3.18,8.68-8.73Z"/>
  <path class="st0" d="M249.36,286.14v-30.66h7.35v7.17l11.57-7.75,3.7,5.55-15.27,10.24v15.44h-7.35Z"/>
  <path class="st0" d="M303.8,255.48h8.1l-19.09,43.38h-8.1l6.36-14.46-13.59-28.92h8.56l8.85,20.19,8.91-20.19Z"/>
  <path class="st0" d="M54.65,354.92l-10.35-30.66h7.92l5.84,18.4,5.67-18.4h11.86l5.78,18.51,5.9-18.51h7.64l-10.35,30.66h-6.48l-8.45-26.38-8.5,26.38h-6.48Z"/>
  <path class="st0" d="M103.3,320.21v-10.01h9.08v10.01h-9.08ZM104.16,354.92v-30.66h7.35v30.66h-7.35Z"/>
  <path class="st0" d="M129.56,364.81l-4.4-2.02,2.83-6.94,4.22,1.91c4.63,2.08,6.54,2.72,10.47,2.72,3.53,0,7.64-1.97,7.64-7.12v-4.45c-2.55,3.99-7.06,6.31-12.26,6.31-8.5,0-15.1-6.83-15.1-15.62s6.59-15.62,15.1-15.62c5.21,0,9.72,2.31,12.26,6.31v-6.02h7.35v28.86c0,9.31-6.65,14.81-15.45,14.81-4.4,0-7.58-.69-12.67-3.12ZM149.17,341.09l.81-1.5-.81-1.5c-2.72-4.69-5.78-6.77-9.89-6.77-5.32,0-8.68,3.18-8.68,8.27s3.35,8.27,8.68,8.27c4.11,0,7.17-2.08,9.89-6.77Z"/>
  <path class="st0" d="M175.72,364.81l-4.4-2.02,2.83-6.94,4.22,1.91c4.63,2.08,6.54,2.72,10.47,2.72,3.53,0,7.64-1.97,7.64-7.12v-4.45c-2.55,3.99-7.06,6.31-12.26,6.31-8.5,0-15.1-6.83-15.1-15.62s6.59-15.62,15.1-15.62c5.21,0,9.72,2.31,12.26,6.31v-6.02h7.35v28.86c0,9.31-6.65,14.81-15.45,14.81-4.4,0-7.58-.69-12.67-3.12ZM195.33,341.09l.81-1.5-.81-1.5c-2.72-4.69-5.78-6.77-9.89-6.77-5.32,0-8.68,3.18-8.68,8.27s3.35,8.27,8.68,8.27c4.11,0,7.17-2.08,9.89-6.77Z"/>
  <path class="st0" d="M216.85,320.21v-10.01h9.08v10.01h-9.08ZM217.72,354.92v-30.66h7.35v30.66h-7.35Z"/>
  <path class="st0" d="M238.95,354.92v-30.66h7.35v6.02c2.31-3.82,5.96-6.31,11.11-6.31,6.36,0,12.03,3.41,12.03,12.96v17.99h-7.35v-17.18c0-4.34-2.2-6.42-5.9-6.42-4.63,0-6.77,2.14-9.31,6.77l-.58,1.04v15.79h-7.35Z"/>
  <path class="st0" d="M280.14,341.79v-1.91h7.17v1.45c0,4.63,3.24,7.75,8.04,7.75,2.95,0,4.74-1.21,4.74-3.01,0-1.33-.93-2.02-3.07-3.07l-4.45-2.14c-5.26-2.43-7.06-4.86-7.06-8.73,0-4.34,3.88-8.16,9.72-8.16,3.7,0,5.15.64,8.62,2.26l6.13,2.89-2.89,6.07-5.32-2.54c-2.95-1.39-4.69-2.26-6.19-2.26s-2.26.69-2.26,1.74c0,1.16.46,1.56,2.55,2.55l5.55,2.66c4.97,2.37,6.65,4.97,6.65,8.21,0,5.84-4.97,9.66-12.9,9.66-8.73,0-15.04-5.61-15.04-13.42Z"/>
</svg>