<?xml version="1.0" encoding="UTF-8"?>
<svg id="Layer_1" xmlns="http://www.w3.org/2000/svg" version="1.1" viewBox="0 0 354.03 398.93">
  <!-- Generator: Adobe Illustrator 29.0.1, SVG Export Plug-In . SVG Version: 2.1.0 Build 192)  -->
  <defs>
    <style>
      .st0 {
        fill: #fffa00;
      }
    </style>
  </defs>
  <path class="st0" d="M42.08,79.81v-23.89h-7.35v-6.77h7.35v-12.73h7.35v12.73h7.35v6.77h-7.35v23.89h-7.35Z"/>
  <path class="st0" d="M96.52,61.82v17.99h-7.35v-17.18c0-4.34-2.2-6.42-5.9-6.42-4.05,0-6.83,2.26-9.31,6.77v16.83h-7.35v-43.38h7.35v17.87c2.31-3.3,5.79-5.44,10.53-5.44,6.36,0,12.03,3.41,12.03,12.96Z"/>
  <path class="st0" d="M107.68,63.91c0-8.33,6.13-15.04,15.44-15.04,11.74,0,17.01,7.87,16.54,17.93h-23.83c.29,3.88,3.7,6.07,8.62,6.07,3.59,0,5.38-.75,8.21-2.14l3.88-1.85,3.07,6.02-4.28,2.2c-2.72,1.39-6.31,3.01-10.59,3.01-10.18,0-17.06-6.13-17.06-16.2ZM129.9,60.44c-.06-2.6-2.78-4.45-6.59-4.45-3.3,0-6.19,1.56-6.59,4.45h13.19Z"/>
  <path class="st0" d="M42.08,148.59v-23.89h-7.35v-6.77h7.35v-12.73h7.35v12.73h7.35v6.77h-7.35v23.89h-7.35Z"/>
  <path class="st0" d="M65.74,113.88v-10.01h9.08v10.01h-9.08ZM66.61,148.59v-30.66h7.35v30.66h-7.35Z"/>
  <path class="st0" d="M140.31,130.6v17.99h-7.35v-17.18c0-4.34-2.2-6.42-5.9-6.42-4.63,0-6.77,2.14-9.31,6.77v16.83h-7.35v-17.18c0-4.34-2.2-6.42-5.9-6.42-4.63,0-6.77,2.14-9.31,6.77v16.83h-7.35v-30.66h7.35v5.15c2.31-3.3,5.79-5.44,10.53-5.44,4.34,0,8.39,1.62,10.47,5.73,3.01-3.53,6.59-5.73,11.51-5.73,6.65,0,12.61,3.41,12.61,12.96Z"/>
  <path class="st0" d="M151.47,132.68c0-8.33,6.13-15.04,15.45-15.04,11.74,0,17.01,7.87,16.54,17.93h-23.83c.29,3.88,3.7,6.07,8.62,6.07,3.59,0,5.38-.75,8.21-2.14l3.88-1.85,3.07,6.02-4.28,2.2c-2.72,1.39-6.3,3.01-10.59,3.01-10.18,0-17.06-6.13-17.06-16.2ZM173.69,129.21c-.06-2.6-2.78-4.45-6.59-4.45-3.3,0-6.19,1.56-6.59,4.45h13.19Z"/>
  <path class="st0" d="M37.92,182.66v-10.01h9.08v10.01h-9.08ZM38.79,217.37v-30.66h7.35v30.66h-7.35Z"/>
  <path class="st0" d="M63.31,217.37v-23.89h-7.35v-6.77h7.35v-12.73h7.35v12.73h7.35v6.77h-7.35v23.89h-7.35Z"/>
  <path class="st0" d="M42.08,286.14v-23.89h-7.35v-6.77h7.35v-12.73h7.35v12.73h7.35v6.77h-7.35v23.89h-7.35Z"/>
  <path class="st0" d="M92.12,255.48h7.35v30.66h-7.35v-7.06c-2.43,4.69-7.23,7.35-12.84,7.35-8.5,0-15.1-6.83-15.1-15.62s6.59-15.62,15.1-15.62c5.61,0,10.41,2.66,12.84,7.35v-7.06ZM91.2,270.81l-.81-1.5c-2.54-4.74-5.73-6.77-9.89-6.77-5.32,0-8.68,3.18-8.68,8.27s3.35,8.27,8.68,8.27c4.17,0,7.35-2.02,9.89-6.77l.81-1.5Z"/>
  <path class="st0" d="M140.08,287.01l-7.23-7.46c-4.8-4.98-6.3-6.42-9.83-6.42h-2.31v13.02h-7.35v-43.38h7.35v23.54h2.89c2.95,0,4.86-1.33,9.31-5.84l5.5-5.55,4.86,4.8-9.83,10.12,11.86,12.09-5.21,5.09Z"/>
  <path class="st0" d="M152.63,270.23c0-8.33,6.13-15.04,15.45-15.04,11.74,0,17.01,7.87,16.54,17.93h-23.83c.29,3.88,3.7,6.07,8.62,6.07,3.59,0,5.38-.75,8.21-2.14l3.88-1.85,3.07,6.02-4.28,2.2c-2.72,1.39-6.3,3.01-10.59,3.01-10.18,0-17.06-6.13-17.06-16.2ZM174.84,266.76c-.06-2.6-2.78-4.45-6.59-4.45-3.3,0-6.19,1.56-6.59,4.45h13.19Z"/>
  <path class="st0" d="M193.47,273.01v-1.91h7.17v1.45c0,4.63,3.24,7.75,8.04,7.75,2.95,0,4.74-1.21,4.74-3.01,0-1.33-.93-2.02-3.07-3.07l-4.45-2.14c-5.26-2.43-7.06-4.86-7.06-8.73,0-4.34,3.88-8.16,9.72-8.16,3.7,0,5.15.64,8.62,2.26l6.13,2.89-2.89,6.07-5.32-2.54c-2.95-1.39-4.69-2.26-6.19-2.26s-2.26.69-2.26,1.74c0,1.16.46,1.56,2.54,2.55l5.55,2.66c4.97,2.37,6.65,4.97,6.65,8.21,0,5.84-4.97,9.66-12.9,9.66-8.73,0-15.04-5.61-15.04-13.42Z"/>
</svg>